<?xml version="1.0" standalone="no"?>
<!DOCTYPE svg PUBLIC "-//W3C//DTD SVG 20010904//EN"
 "http://www.w3.org/TR/2001/REC-SVG-20010904/DTD/svg10.dtd">
<svg version="1.0" xmlns="http://www.w3.org/2000/svg"
 width="430.000000pt" height="430.000000pt" viewBox="0 0 430.000000 430.000000"
 preserveAspectRatio="xMidYMid meet">
<metadata>
Created by potrace 1.14, written by Peter Selinger 2001-2017
</metadata>
<g transform="translate(0.000000,430.000000) scale(0.100000,-0.100000)"
fill="#000000" stroke="none">
<path d="M253 4145 c-121 -28 -206 -111 -238 -235 -8 -33 -11 -401 -10 -1355
2 -1169 4 -1320 18 -1400 27 -145 66 -253 154 -420 27 -51 117 -167 179 -230
191 -197 448 -326 719 -364 43 -6 618 -9 1505 -8 l1435 2 48 24 c158 78 226
265 152 418 -45 92 -131 161 -220 177 -16 3 -660 6 -1430 7 -1564 1 -1455 -4
-1604 71 -90 45 -204 160 -254 255 -72 138 -69 69 -71 1523 -2 1295 -2 1305
-23 1350 -65 143 -212 218 -360 185z"/>
<path d="M1332 4140 c-247 -81 -319 -395 -129 -566 65 -58 140 -86 247 -89
170 -6 289 57 358 190 23 44 26 62 26 145 0 83 -3 101 -26 145 -34 65 -103
129 -175 162 -79 36 -211 42 -301 13z"/>
<path d="M3408 3285 c-2 -2 -25 -6 -52 -9 -145 -20 -310 -106 -416 -217 l-55
-58 0 132 0 132 -312 2 -313 2 -1 -22 c-4 -124 0 -2017 4 -2023 4 -7 585 -11
618 -5 3 1 5 268 5 594 1 618 2 644 45 745 25 57 100 135 157 163 89 43 222
55 312 28 145 -43 248 -167 267 -323 3 -28 6 -311 6 -629 1 -317 3 -577 6
-578 3 -1 145 -2 314 -3 l308 -1 -4 690 c-3 613 -6 698 -21 765 -37 157 -101
282 -199 387 -118 125 -247 193 -431 223 -58 9 -229 13 -238 5z"/>
<path d="M1159 3262 c-1 -4 -3 -465 -4 -1024 -1 -721 2 -1018 9 -1019 6 -1
147 -2 313 -3 l303 -1 1 30 c1 39 1 1962 0 1997 l-1 27 -310 0 c-170 0 -311
-3 -311 -7z"/>
</g>
</svg>
