<svg width="12" height="21" viewBox="0 0 12 21" fill="none" xmlns="http://www.w3.org/2000/svg">
<path d="M10.7271 1.68701C10.9093 1.49419 11.0074 1.2369 10.9999 0.971721C10.9924 0.706545 10.8799 0.455209 10.6871 0.273005C10.4943 0.0908017 10.237 -0.00734514 9.97181 0.000156306C9.70664 0.00765776 9.4553 0.120193 9.2731 0.313005L0.773098 9.31301C0.597562 9.49867 0.499756 9.74449 0.499756 10C0.499756 10.2555 0.597562 10.5013 0.773098 10.687L9.2731 19.688C9.36272 19.7856 9.47084 19.8643 9.59116 19.9198C9.71149 19.9752 9.84163 20.0062 9.97402 20.0109C10.1064 20.0156 10.2384 19.9939 10.3624 19.9472C10.4863 19.9004 10.5998 19.8295 10.6961 19.7386C10.7924 19.6476 10.8697 19.5384 10.9235 19.4173C10.9772 19.2963 11.0064 19.1657 11.0093 19.0333C11.0122 18.9008 10.9887 18.7691 10.9403 18.6458C10.8918 18.5225 10.8194 18.4101 10.7271 18.315L2.8751 10L10.7271 1.68701V1.68701Z" fill="black"/>
</svg>
