<svg width="12" height="21" viewBox="0 0 12 21" fill="none"
    xmlns="http://www.w3.org/2000/svg">
    <path d="M1.27291 1.687C1.18269 1.59153 1.11216 1.47923 1.06535 1.3565C1.01853 1.23377 0.996347 1.10302 1.00006 0.971721C1.00378 0.840419 1.03332 0.711134 1.08699 0.591248C1.14067 0.471362 1.21744 0.363223 1.31291 0.273005C1.40838 0.182787 1.52069 0.112257 1.64342 0.0654411C1.76615 0.0186256 1.89689 -0.00355848 2.0282 0.000155861C2.1595 0.00387021 2.28878 0.03341 2.40867 0.0870888C2.52855 0.140767 2.63669 0.217534 2.72691 0.313005L11.2269 9.313C11.4024 9.49867 11.5003 9.74449 11.5003 10C11.5003 10.2555 11.4024 10.5013 11.2269 10.687L2.72691 19.688C2.63729 19.7856 2.52917 19.8643 2.40885 19.9198C2.28852 19.9752 2.15838 20.0062 2.02599 20.0109C1.89359 20.0156 1.76158 19.9939 1.63762 19.9472C1.51367 19.9004 1.40023 19.8295 1.30391 19.7386C1.20759 19.6476 1.1303 19.5384 1.07654 19.4173C1.02277 19.2963 0.9936 19.1657 0.990716 19.0333C0.987831 18.9008 1.01129 18.7691 1.05974 18.6458C1.10818 18.5225 1.18064 18.4101 1.27291 18.315L9.12491 10L1.27291 1.687V1.687Z" fill="black"/>
</svg>
